    <svg
              width="24"
              height="24"
              viewBox="0 0 24 24"
              fill="none"
              xmlns="http://www.w3.org/2000/svg"
            >
              <path
                d="M15.7971 1.92647L14.0859 2.9843L12.308 1.20638C12.125 1.02333 11.8282 1.02333 11.6451 1.20638L9.86719 2.9843L8.15602 1.92647C7.81537 1.71591 7.38459 2.00185 7.44642 2.39756L8.39902 8.49417C8.41626 8.60461 8.47241 8.70525 8.55734 8.77794C8.64226 8.85062 8.75036 8.89056 8.86214 8.89055H15.091C15.2028 8.89056 15.3109 8.85062 15.3958 8.77794C15.4807 8.70525 15.5369 8.60461 15.5541 8.49417L16.5067 2.39756C16.5685 2.00189 16.1378 1.71591 15.7971 1.92647Z"
                fill="#451503"
              />
              <path
                fill-rule="evenodd"
                clip-rule="evenodd"
                d="M8.0078 20.9999C8.0078 22.1045 8.90323 22.9999 10.0078 22.9999H13.9922C15.0968 22.9999 15.9922 22.1045 15.9922 20.9999V12.2968C15.9922 11.1922 15.0968 10.2968 13.9922 10.2968H10.0078C8.90323 10.2968 8.0078 11.1922 8.0078 12.2968V20.9999ZM12 17.328C12.3883 17.328 12.7031 17.0132 12.7031 16.6249V13.8124C12.7031 13.4241 12.3883 13.1093 12 13.1093H11.2969C10.9086 13.1093 10.5938 13.4241 10.5938 13.8124C10.5938 14.2007 10.9086 14.5155 11.2969 14.5155V16.6249C11.2969 17.0132 11.6117 17.328 12 17.328Z"
                fill="#451503"
              />
              <path
                d="M19.3986 14.5624C18.294 14.5624 17.3986 15.4579 17.3986 16.5624V20.9999C17.3986 22.1045 18.294 22.9999 19.3986 22.9999H20.5703C21.6749 22.9999 22.5703 22.1045 22.5703 20.9999V16.5624C22.5703 15.4579 21.6749 14.5624 20.5703 14.5624H19.3986Z"
                fill="#451503"
              />
              <path
                d="M4.60141 22.9999C5.70598 22.9999 6.60141 22.1045 6.60141 20.9999V15.1562C6.60141 14.0516 5.70598 13.1562 4.60141 13.1562H3.42969C2.32512 13.1562 1.42969 14.0516 1.42969 15.1562V20.9999C1.42969 22.1045 2.32512 22.9999 3.42969 22.9999H4.60141Z"
                fill="#451503"
              />
            </svg>