     <svg
              width="18"
              height="20"
              viewBox="0 0 18 20"
              fill="none"
              xmlns="http://www.w3.org/2000/svg"
            >
              <path
                fill-rule="evenodd"
                clip-rule="evenodd"
                d="M1.8001 2.79999C1.8001 2.16347 2.05295 1.55302 2.50304 1.10294C2.95313 0.65285 3.56358 0.399994 4.2001 0.399994H13.8001C14.4366 0.399994 15.0471 0.65285 15.4972 1.10294C15.9472 1.55302 16.2001 2.16347 16.2001 2.79999V17.2C16.5184 17.2 16.8236 17.3264 17.0486 17.5515C17.2737 17.7765 17.4001 18.0817 17.4001 18.4C17.4001 18.7183 17.2737 19.0235 17.0486 19.2485C16.8236 19.4736 16.5184 19.6 16.2001 19.6H12.6001C12.2818 19.6 11.9766 19.4736 11.7516 19.2485C11.5265 19.0235 11.4001 18.7183 11.4001 18.4V16C11.4001 15.6817 11.2737 15.3765 11.0486 15.1515C10.8236 14.9264 10.5184 14.8 10.2001 14.8H7.8001C7.48184 14.8 7.17661 14.9264 6.95157 15.1515C6.72653 15.3765 6.6001 15.6817 6.6001 16V18.4C6.6001 18.7183 6.47367 19.0235 6.24863 19.2485C6.02358 19.4736 5.71836 19.6 5.4001 19.6H1.8001C1.48184 19.6 1.17661 19.4736 0.951569 19.2485C0.726526 19.0235 0.600098 18.7183 0.600098 18.4C0.600098 18.0817 0.726526 17.7765 0.951569 17.5515C1.17661 17.3264 1.48184 17.2 1.8001 17.2V2.79999ZM5.4001 3.99999H7.8001V6.39999H5.4001V3.99999ZM7.8001 8.79999H5.4001V11.2H7.8001V8.79999ZM10.2001 3.99999H12.6001V6.39999H10.2001V3.99999ZM12.6001 8.79999H10.2001V11.2H12.6001V8.79999Z"
                fill="#451503"
              />
            </svg>