<svg
              width="24"
              height="24"
              viewBox="0 0 24 24"
              fill="none"
              xmlns="http://www.w3.org/2000/svg"
            >
              <path
                fill-rule="evenodd"
                clip-rule="evenodd"
                d="M12 22.0001C6.48 22.0001 2 17.5301 2 12.0001C2 6.48009 6.48 2.00009 12 2.00009C17.53 2.00009 22 6.48009 22 12.0001C22 17.5301 17.53 22.0001 12 22.0001ZM12 7.00009C12 6.44781 11.5523 6.00009 11 6.00009C10.4477 6.00009 10 6.44781 10 7.00009V13.0001C10 13.3514 10.1843 13.6769 10.4855 13.8576L15.4855 16.8576C15.9591 17.1417 16.5733 16.9882 16.8575 16.5146C17.1416 16.041 16.9881 15.4267 16.5145 15.1426L12 12.4339V7.00009Z"
                fill="white"
              />
            </svg>