<svg width="18" height="24" viewBox="0 0 18 24" fill="none" xmlns="http://www.w3.org/2000/svg">
<path d="M6 18.5H12M3.6 2H14.4C14.9601 2 15.2401 2 15.454 2.10899C15.6422 2.20487 15.7951 2.35785 15.891 2.54601C16 2.75992 16 3.03995 16 3.6V5.67452C16 6.1637 16 6.40829 15.9447 6.63846C15.8957 6.84254 15.8149 7.03763 15.7053 7.21657C15.5816 7.4184 15.4086 7.59135 15.0627 7.93726L12.1314 10.8686C11.7354 11.2646 11.5373 11.4627 11.4632 11.691C11.3979 11.8918 11.3979 12.1082 11.4632 12.309C11.5373 12.5373 11.7354 12.7354 12.1314 13.1314L15.0627 16.0627C15.4086 16.4086 15.5816 16.5816 15.7053 16.7834C15.8149 16.9624 15.8957 17.1575 15.9447 17.3615C16 17.5917 16 17.8363 16 18.3255V20.4C16 20.9601 16 21.2401 15.891 21.454C15.7951 21.6422 15.6422 21.7951 15.454 21.891C15.2401 22 14.9601 22 14.4 22H3.6C3.03995 22 2.75992 22 2.54601 21.891C2.35785 21.7951 2.20487 21.6422 2.10899 21.454C2 21.2401 2 20.9601 2 20.4V18.3255C2 17.8363 2 17.5917 2.05526 17.3615C2.10425 17.1575 2.18506 16.9624 2.29472 16.7834C2.4184 16.5816 2.59135 16.4086 2.93726 16.0627L5.86863 13.1314C6.26465 12.7354 6.46265 12.5373 6.53684 12.309C6.6021 12.1082 6.6021 11.8918 6.53684 11.691C6.46266 11.4627 6.26464 11.2646 5.86863 10.8686L2.93726 7.93726C2.59136 7.59136 2.4184 7.4184 2.29472 7.21657C2.18506 7.03763 2.10425 6.84254 2.05526 6.63846C2 6.40829 2 6.1637 2 5.67452V3.6C2 3.03995 2 2.75992 2.10899 2.54601C2.20487 2.35785 2.35785 2.20487 2.54601 2.10899C2.75992 2 3.03995 2 3.6 2Z" stroke="#451503" stroke-width="2.5" stroke-linecap="round" stroke-linejoin="round"/>
</svg>